# xmcd
#
# Track frame offsets:
#	150
#	17390
#	75062
#	94425
#	109289
#	128804
#	150118
#	166899
#	218137
#
# Disc length: 3265 seconds
#
# Revision: 0
# Processed by: cddbd v1.5.2PL0 Copyright (c) Steve Scherf et al.
# Submitted via: dBpowerAMP V4.0
#
DISCID=5c0cbf09
DTITLE=Harness - Timeless
DYEAR=1900
DGENRE=Acoustic
TTITLE0=Star Of County Down
TTITLE1=My Bonny, If I Had, Imagine
TTITLE2=Stand By Me
TTITLE3=Tunes
TTITLE4=Leaving Liverpool
TTITLE5=Fields Of Athenny
TTITLE6=Bad Moon Rising
TTITLE7=Hole In The Bucket, Cottonfields, Barbar Ann, Speedy Gonzales, Great Balls Of Fire
TTITLE8=Duelling Banjos, New York New York
EXTD=
EXTT0=
EXTT1=
EXTT2=
EXTT3=
EXTT4=
EXTT5=
EXTT6=
EXTT7=
EXTT8=
PLAYORDER=
